<svg version="1.1" id="Layer_1" xmlns="http://www.w3.org/2000/svg" xmlns:xlink="http://www.w3.org/1999/xlink" x="0px" y="0px"
	 width="100%" viewBox="0 0 512 512" enable-background="new 0 0 512 512" xml:space="preserve">
<path fill="#222426" opacity="1.000000" stroke="none" 
	d="
M1.000000,182.000000 
	C1.000000,122.666664 1.037941,63.833244 0.903018,5.000222 
	C0.895164,1.575297 1.576367,0.903139 5.000061,0.905342 
	C172.999985,1.013444 341.000000,1.013444 508.999939,0.905342 
	C512.423645,0.903139 513.096802,1.576367 513.094604,5.000061 
	C512.986511,172.999985 512.986511,341.000000 513.094604,508.999939 
	C513.096802,512.423645 512.423645,513.096802 508.999939,513.094604 
	C341.000000,512.986511 172.999985,512.986511 5.000061,513.094604 
	C1.576367,513.096802 0.900976,512.423889 0.904627,508.999908 
	C1.020687,400.166687 1.000000,291.333344 1.000000,182.000000 
z"/>
<path fill="#99BD54" opacity="1.000000" stroke="none" 
	d="
M471.585510,357.643372 
	C466.539978,371.025879 458.972900,382.780182 450.703278,394.045105 
	C408.855164,451.050842 352.879272,484.860291 282.579010,492.587158 
	C211.629593,500.385376 148.795654,479.533356 96.208466,431.428650 
	C39.418396,379.479370 13.950690,313.982178 19.957600,237.270020 
	C28.336740,130.262970 108.869965,40.130566 213.976334,22.515629 
	C310.115326,6.403551 388.857788,38.920326 448.281647,116.056511 
	C481.141174,158.710434 495.614105,208.035370 494.773468,261.760956 
	C494.406647,285.205170 490.403412,308.139648 482.833008,330.732544 
	C481.258698,330.945709 480.987000,332.377991 480.218140,333.070038 
	C476.066071,336.807434 472.931946,337.027191 468.763092,333.523773 
	C467.758728,332.679749 466.859070,331.710815 465.440247,330.681976 
	C465.121887,330.020447 465.067444,329.731171 465.084045,329.018311 
	C471.316467,308.989227 475.519012,289.072449 476.621826,268.438934 
	C479.762451,209.678970 461.669067,157.964706 423.911224,113.510406 
	C388.255219,71.530670 342.494110,46.296352 287.798553,38.630825 
	C230.369431,30.582190 177.707108,43.537430 130.028610,76.721169 
	C99.672485,97.848724 76.837646,125.450279 60.100693,158.127853 
	C47.053997,183.600479 39.837032,210.805588 37.378593,239.397400 
	C34.556149,272.222565 39.809090,303.755524 50.853836,334.542084 
	C51.412544,336.099457 52.097656,337.624420 52.397057,339.638519 
	C56.484753,348.054413 60.400871,356.133850 64.667999,364.435486 
	C68.297066,368.918579 70.305161,373.980530 73.576996,378.659973 
	C78.089752,384.602631 81.585548,390.907257 87.285873,395.934418 
	C121.603859,437.979675 165.659286,463.139801 218.328857,472.650269 
	C279.021576,483.609467 334.718109,470.304749 385.098450,434.862457 
	C416.282013,412.924988 439.605591,384.308319 456.207611,350.091187 
	C456.918640,348.625702 457.454102,346.960693 459.592041,346.252197 
	C467.219025,345.858765 469.526367,345.628448 471.585510,357.643372 
z"/>
<path fill="#9DC159" opacity="1.000000" stroke="none" 
	d="
M471.945343,357.643341 
	C469.865479,357.184021 468.708527,355.620270 468.209229,353.616058 
	C467.264740,349.825104 464.652130,348.301208 460.638855,348.026733 
	C457.145081,347.003174 458.252594,345.349304 459.407715,343.455139 
	C459.972931,342.528290 461.206299,342.001862 461.175659,340.269348 
	C462.446289,336.030518 462.783051,331.784363 466.766998,329.050385 
	C471.396515,334.323944 476.569946,333.207001 482.282043,331.110779 
	C479.787231,340.053314 477.007172,349.119354 471.945343,357.643341 
z"/>
<path fill="#242829" opacity="1.000000" stroke="none" 
	d="
M51.298866,341.325104 
	C42.015327,321.427429 37.063114,300.723389 35.254475,279.404877 
	C28.784815,203.146774 54.171558,138.959778 111.273659,88.352280 
	C157.358841,47.508682 212.379654,29.960142 273.691406,34.258808 
	C376.028656,41.433846 461.418121,120.845009 477.098480,222.308609 
	C482.460114,257.002411 479.581207,291.035187 469.081421,324.474487 
	C468.735718,325.575531 468.194427,326.615173 467.434601,327.866852 
	C463.653076,331.463745 461.881378,327.364075 459.085876,326.020874 
	C456.957428,322.743774 458.587860,319.932678 459.383240,317.186401 
	C465.245758,296.943665 468.502197,276.254974 468.368256,255.233109 
	C468.218079,231.654953 464.172974,208.608826 455.811462,186.028244 
	C452.559479,175.678360 448.317444,166.173798 443.414429,156.970749 
	C434.070465,139.431824 422.261169,123.622520 408.785248,109.096489 
	C404.079803,104.024399 398.913879,99.273216 392.727295,95.270363 
	C392.312836,93.802322 391.861145,92.664040 390.907715,92.063927 
	C380.167450,85.303963 370.255615,77.301933 359.004395,71.290100 
	C335.730194,58.854012 311.202118,50.349091 285.015930,46.725754 
	C255.560440,42.650059 226.563080,45.176853 198.084885,53.271248 
	C168.001068,61.821999 141.316727,76.775154 117.732117,97.328835 
	C89.731674,121.730843 70.027214,151.707657 57.479145,186.521255 
	C56.690521,188.709244 55.336418,190.646133 54.784195,193.330154 
	C52.426205,203.399445 49.326481,212.894516 47.983887,223.216904 
	C41.866859,260.632904 46.633389,296.517639 59.049717,331.614410 
	C59.605686,333.185944 59.789440,334.857361 60.574463,336.824860 
	C60.938564,337.835754 60.974152,338.432343 60.583668,339.437195 
	C57.528191,340.828613 55.036205,343.363770 51.298866,341.325104 
z"/>
<path fill="#242829" opacity="1.000000" stroke="none" 
	d="
M463.024963,339.650146 
	C462.232208,342.467072 461.258850,344.876862 460.276489,347.640442 
	C446.047089,377.839233 426.860504,403.890564 401.623779,425.424683 
	C308.746399,504.675507 169.591187,494.597290 89.139084,402.726288 
	C87.823280,401.223724 86.540154,399.692535 85.090752,397.852844 
	C85.047302,394.636658 86.987984,392.676819 88.809967,390.243530 
	C92.027328,387.922211 93.426247,390.492767 94.784111,392.125580 
	C104.304642,403.574036 115.082619,413.699799 126.795700,422.844299 
	C155.781219,445.473450 188.513428,459.649414 224.807098,465.194183 
	C270.359985,472.153564 313.803833,465.037872 354.668213,443.684479 
	C385.792542,427.420746 411.254578,404.535004 431.284454,375.687042 
	C432.745636,373.582611 435.871490,372.323578 435.304932,368.562439 
	C435.892181,366.850403 437.323608,366.437225 438.446167,365.144989 
	C442.341431,357.653015 446.567688,350.745605 449.732422,343.285828 
	C450.506500,341.461212 450.882751,338.940704 454.210266,339.026306 
	C457.357910,339.872681 460.174194,335.998138 463.024963,339.650146 
z"/>
<path fill="#212325" opacity="1.000000" stroke="none" 
	d="
M50.970448,341.397583 
	C53.347515,340.374420 55.760067,339.720184 58.552246,339.036377 
	C62.133385,338.910980 63.027370,341.470276 64.033096,343.671997 
	C65.892418,347.742279 67.593880,351.883331 70.142761,356.053223 
	C71.299805,358.066833 72.056557,359.794128 71.247955,362.167725 
	C68.733070,364.003418 67.880478,368.276581 63.432404,366.223206 
	C58.064240,358.408966 54.335480,350.187317 50.970448,341.397583 
z"/>
<path fill="#212325" opacity="1.000000" stroke="none" 
	d="
M90.331123,390.519348 
	C89.665314,393.672546 88.033272,395.647491 85.292435,397.310242 
	C79.984505,392.472290 76.007278,386.664215 72.018913,380.465546 
	C71.818710,376.607391 71.942848,373.215332 76.975739,372.523071 
	C78.227287,372.556519 79.314575,372.126740 79.817543,372.722809 
	C84.054260,377.743896 88.412468,382.698242 91.028992,388.844849 
	C91.223694,389.302216 90.868355,389.792297 90.331123,390.519348 
z"/>
<path fill="#282C2E" opacity="1.000000" stroke="none" 
	d="
M463.444641,339.801880 
	C460.358185,340.350128 457.510803,340.642914 454.226196,340.934021 
	C453.393646,340.647308 452.837219,340.413971 452.715759,339.969238 
	C451.852844,336.809082 456.251404,326.688904 459.653656,324.937439 
	C462.209930,325.933563 464.336517,326.872955 466.794006,327.931274 
	C467.124908,328.050262 467.074829,328.533997 467.124817,328.771973 
	C466.648254,332.733246 465.022034,336.092163 463.444641,339.801880 
z"/>
<path fill="#262B2C" opacity="1.000000" stroke="none" 
	d="
M78.180473,373.739960 
	C75.091080,374.910034 73.792137,377.338196 72.109848,379.852356 
	C68.467728,376.005463 66.086845,371.178833 63.162804,366.319336 
	C65.186974,364.734314 67.283730,363.485352 69.693771,362.113342 
	C70.200127,361.833282 70.393204,361.676239 70.954865,361.458984 
	C74.991882,363.528717 75.957840,367.771698 78.825089,371.021240 
	C79.280617,372.165710 79.085358,372.872162 78.180473,373.739960 
z"/>
<path fill="#678E3C" opacity="1.000000" stroke="none" 
	d="
M52.797760,193.261902 
	C98.970360,46.582733 276.531311,-5.831762 394.726746,92.829803 
	C396.322815,97.070831 392.609344,97.849098 390.433350,100.018997 
	C387.431854,100.715645 385.851166,98.764488 384.085419,97.350151 
	C359.358032,77.544029 331.636261,64.141319 300.622711,57.293575 
	C258.586090,48.011963 217.756470,51.988991 178.260300,68.445847 
	C136.307159,85.926445 103.988861,114.749001 80.945412,153.964920 
	C74.083633,165.642471 68.472443,177.865021 63.975498,190.633041 
	C63.159637,192.949493 63.091831,196.148346 59.095432,196.489777 
	C56.325180,196.442993 54.363956,195.623901 52.797760,193.261902 
z"/>
<path fill="#678C40" opacity="1.000000" stroke="none" 
	d="
M460.116516,324.612610 
	C458.061829,330.074280 456.040344,335.154419 453.903900,340.583435 
	C449.442841,349.233795 446.058746,358.047821 440.259521,365.888794 
	C434.384827,367.394531 434.740509,362.468353 433.255798,359.192505 
	C437.450073,353.332611 439.734924,346.952881 442.450867,340.864105 
	C456.265503,309.893982 462.243958,277.353699 460.304749,243.530273 
	C459.330627,226.539169 456.080292,209.850449 450.646881,193.638596 
	C449.511414,190.250610 447.626648,186.879700 449.284668,182.739822 
	C452.544464,179.612564 454.831818,181.766418 457.563477,183.675720 
	C472.544464,223.048203 474.380371,262.931641 465.603943,303.460785 
	C464.090393,310.450134 461.982849,317.310852 460.116516,324.612610 
z"/>
<path fill="#678D3F" opacity="1.000000" stroke="none" 
	d="
M59.122841,337.397949 
	C52.256767,323.656036 49.036545,309.198486 46.250164,294.685822 
	C41.727337,271.128998 41.398193,247.437256 45.439655,223.371201 
	C47.422264,221.600220 49.211464,219.781601 51.965363,222.465820 
	C54.556366,223.528076 54.414394,225.390366 54.489368,227.252777 
	C54.691433,232.272232 53.818916,237.220535 53.410778,242.183136 
	C51.005657,271.427307 56.137840,299.533051 65.574623,327.056213 
	C66.317734,329.223602 67.409355,331.379852 66.628784,334.183105 
	C64.047401,335.562531 63.244789,339.840302 59.122841,337.397949 
z"/>
<path fill="#668B3D" opacity="1.000000" stroke="none" 
	d="
M457.893036,183.638962 
	C455.748840,184.080429 453.533844,183.384094 451.050293,184.361938 
	C446.538269,185.636871 446.645630,181.778137 445.789581,179.770432 
	C440.300781,166.897064 433.814178,154.580261 425.875305,143.062271 
	C416.441528,129.375397 406.584808,116.049484 393.561096,105.396500 
	C391.626617,103.814140 388.473328,102.406593 389.576843,98.440674 
	C390.429138,95.698326 391.733459,93.881767 394.647217,93.221710 
	C421.178345,114.878815 440.464630,141.799240 453.858337,173.052155 
	C455.298523,176.412704 456.523315,179.865570 457.893036,183.638962 
z"/>
<path fill="#6A9440" opacity="1.000000" stroke="none" 
	d="
M52.878368,224.255569 
	C50.458286,223.785492 48.465115,223.429520 46.026955,223.043976 
	C46.341087,212.847122 49.655014,203.253967 52.412422,193.188965 
	C54.710629,193.199127 56.757782,193.673187 58.863480,195.126968 
	C61.004539,196.151779 61.384567,197.622955 60.950954,199.386368 
	C59.098877,206.918472 57.555859,214.525543 55.470520,222.000809 
	C55.150814,223.146851 54.718536,224.212524 52.878368,224.255569 
z"/>
<path fill="#62873F" opacity="1.000000" stroke="none" 
	d="
M58.781467,337.426636 
	C60.627686,336.154602 62.505726,335.198700 64.707458,334.118408 
	C66.163132,333.256592 67.445267,333.197449 68.044907,334.412445 
	C70.947205,340.292908 74.619034,345.840210 76.067818,352.365051 
	C76.167641,352.814606 75.891129,353.330627 75.572540,354.192657 
	C73.749649,356.843506 71.690689,358.060944 68.397354,357.148376 
	C65.070473,351.229309 62.154274,345.438904 59.084972,339.327637 
	C58.892345,338.585419 58.852818,338.164093 58.781467,337.426636 
z"/>
<path fill="#95B954" opacity="1.000000" stroke="none" 
	d="
M435.184326,358.803802 
	C436.432465,361.302551 437.899689,363.509125 439.657043,365.875916 
	C439.567596,366.987122 439.188019,367.938141 438.594696,369.115906 
	C435.737305,371.027893 433.242584,373.184021 429.300781,371.940735 
	C426.294586,370.638062 423.616272,371.541595 420.993774,371.536499 
	C391.018066,371.478577 361.041931,371.554016 331.066711,371.414246 
	C328.139099,371.400604 323.796661,373.063385 323.081360,367.981720 
	C322.588135,364.478027 327.413605,359.792938 331.528503,359.608032 
	C338.015961,359.316528 344.515656,359.525787 351.010101,359.503265 
	C357.671326,359.480164 364.334320,359.599762 370.993408,359.459930 
	C376.865997,359.336639 377.968781,357.649048 375.220062,352.378143 
	C366.444122,335.549713 357.864349,318.616486 348.878937,301.900360 
	C339.655853,284.742065 330.936676,267.322906 321.717834,250.163467 
	C313.365906,234.617615 305.278534,218.930618 296.856293,202.981857 
	C294.886780,200.832733 293.684540,198.550888 291.555328,196.540482 
	C290.706787,192.497650 290.349731,188.712738 288.443817,185.299408 
	C287.576813,183.746658 287.412964,182.115295 289.559479,180.729980 
	C291.333191,179.341080 292.960724,180.154053 294.873474,180.133881 
	C299.209839,179.886688 300.655212,182.800552 302.148468,185.610092 
	C310.944122,202.159073 319.406464,218.881912 328.145142,235.460510 
	C329.295746,237.643433 330.064697,240.071564 332.267212,242.061432 
	C334.761108,243.103806 336.294678,244.599838 337.529724,246.960007 
	C338.209198,261.091064 347.469452,271.242279 353.112366,282.822266 
	C362.001648,301.064087 371.825134,318.859863 381.255096,336.843109 
	C384.347931,342.741272 387.638062,348.531586 390.660492,354.463928 
	C392.452728,357.981781 395.305420,359.470459 399.158020,359.479950 
	C404.985992,359.494324 410.815765,359.584656 416.641296,359.462799 
	C422.066528,359.349274 422.841858,357.891815 420.052063,353.039307 
	C412.086700,339.184631 403.838135,325.495697 395.643097,311.776825 
	C382.325958,289.483246 369.181488,267.088104 355.978058,244.727600 
	C355.131989,243.294724 354.293213,241.855560 353.470001,240.410263 
	C351.708160,237.317184 349.660217,235.249985 345.896393,237.624023 
	C345.105438,238.122910 344.289612,237.580673 343.149475,237.254501 
	C340.973175,235.524094 340.478821,233.073730 338.798523,230.926605 
	C339.451019,224.040649 344.121735,219.771866 348.394775,215.557831 
	C350.597382,213.385620 352.955261,215.846512 354.394623,218.034134 
	C359.064850,225.132217 363.329834,232.482590 367.626007,239.806000 
	C388.271332,274.998840 409.315521,309.954102 430.170624,345.021912 
	C431.703674,347.599701 433.036591,350.288940 434.616425,352.839142 
	C435.713562,354.610168 435.970032,356.505798 435.184326,358.803802 
z"/>
<path fill="#678D3E" opacity="1.000000" stroke="none" 
	d="
M428.541077,369.458466 
	C431.718597,369.777832 434.636841,369.786926 437.971771,369.358551 
	C420.175171,399.074951 395.807068,422.710938 365.932953,440.346832 
	C273.981323,494.629578 160.503311,474.229492 90.327194,391.033417 
	C86.169525,385.385101 82.279152,379.944733 78.151291,374.266052 
	C77.696709,373.502319 77.479630,372.976837 77.202499,372.172363 
	C76.333679,368.330475 77.234779,366.341400 81.799019,367.328186 
	C82.533241,367.356873 82.824127,367.373169 83.540634,367.416748 
	C84.242790,367.463806 84.519325,367.483643 85.189789,367.616272 
	C90.776482,375.219269 96.441086,382.354645 102.427971,389.207031 
	C130.031448,420.800842 164.031738,442.283234 204.578476,453.216217 
	C217.626129,456.734375 230.945938,458.592529 244.445923,459.599731 
	C281.475494,462.362427 316.320862,454.543365 349.192871,437.893158 
	C378.346832,423.126251 402.368073,402.053986 421.899994,375.875580 
	C423.710907,373.448456 425.633942,371.228363 428.541077,369.458466 
z"/>
<path fill="#739C45" opacity="1.000000" stroke="none" 
	d="
M68.053391,357.353607 
	C69.566383,355.623138 71.266670,354.449341 73.755356,354.026550 
	C77.425880,352.598816 77.369080,355.662384 78.640045,357.675079 
	C78.849922,358.398010 78.847832,358.708038 78.645966,359.437805 
	C75.967911,360.362274 74.971153,364.629181 71.123062,362.331177 
	C70.752808,362.066772 70.377754,362.050293 70.192406,362.020294 
	C69.378067,360.556030 68.749084,359.121735 68.053391,357.353607 
z"/>
<path fill="#85AE4D" opacity="1.000000" stroke="none" 
	d="
M70.862823,362.403259 
	C72.654716,361.175995 74.556618,360.285187 76.792999,359.305603 
	C82.420357,359.986267 82.858391,364.141937 83.205429,368.593201 
	C80.906883,369.137909 78.837212,369.371094 77.340820,371.628357 
	C74.605827,369.165741 72.685791,366.022522 70.862823,362.403259 
z"/>
<path fill="#212325" opacity="1.000000" stroke="none" 
	d="
M77.299408,358.339722 
	C76.139473,356.965088 75.297012,355.735199 74.279648,354.235901 
	C71.224289,347.488708 68.343849,341.010895 65.247284,334.263550 
	C60.341499,319.591492 55.366634,305.282318 52.975739,290.229645 
	C49.525764,268.509216 49.235134,246.790512 52.422527,224.583710 
	C54.670498,214.796448 56.889538,205.451416 59.145153,195.725494 
	C62.745541,186.561157 65.812195,177.587784 69.885490,168.997269 
	C106.840027,91.060577 185.571243,44.453747 271.596130,50.262611 
	C313.461273,53.089569 350.934631,67.982521 384.012573,93.845848 
	C385.717773,95.179115 387.432922,96.499588 389.439972,97.967743 
	C400.828278,108.143318 411.413849,118.614105 420.458771,130.626068 
	C432.831787,147.057831 442.786774,164.779434 450.524231,184.197723 
	C456.159851,201.298828 460.830902,218.259369 462.392853,235.940125 
	C465.885071,275.471497 459.390503,313.161957 441.573486,348.734863 
	C439.813934,352.247925 438.665314,356.181213 435.317383,359.052856 
	C415.847046,326.784851 396.742920,294.465393 377.604218,262.166443 
	C369.219543,248.016266 360.716583,233.935974 352.384888,219.754898 
	C350.884247,217.200653 349.889557,216.542160 348.041656,219.383514 
	C345.869476,222.723511 343.456177,225.906708 341.028168,229.472977 
	C339.885559,235.728561 338.079193,241.163788 331.560669,243.934723 
	C328.410980,244.347717 328.344971,241.737106 327.546417,240.216599 
	C318.384918,222.772095 309.359772,205.256027 300.272308,187.772522 
	C299.284210,185.871475 298.133453,184.055008 296.947418,181.892792 
	C293.607056,181.166901 292.778931,178.410141 291.417694,176.114502 
	C289.633789,173.106171 288.245117,169.888397 286.207703,166.598602 
	C283.355499,161.018997 281.104431,155.555527 278.069122,150.065613 
	C275.939301,144.679581 272.106537,140.527267 270.660400,134.855560 
	C266.173401,128.459717 263.041962,121.699738 259.619232,115.097557 
	C258.821808,113.559372 258.351715,111.326309 256.046448,111.493843 
	C254.132614,111.632942 253.576675,113.569458 252.926270,115.034660 
	C250.581665,120.316467 246.858063,124.841095 244.636154,130.563080 
	C228.459946,162.368210 211.109024,193.172012 194.814056,224.961823 
	C191.373734,230.234131 189.382034,235.874908 186.024765,240.759399 
	C184.943954,242.331848 184.186203,244.377670 181.267181,243.720428 
	C177.740982,242.042831 176.288757,238.939789 174.401260,236.274445 
	C172.578049,233.699844 170.434769,231.407776 168.392136,228.622223 
	C168.352646,226.324585 166.390915,225.898407 165.466019,224.673157 
	C163.509659,222.081528 161.510925,222.780975 159.910019,225.209625 
	C157.805603,228.402069 155.894379,231.716309 153.947144,235.005432 
	C130.749252,274.189728 107.198158,313.163910 84.105095,352.410553 
	C83.093559,354.129669 82.030510,355.818359 80.926552,357.479736 
	C80.108627,358.710693 79.116562,359.456970 77.299408,358.339722 
z"/>
<path fill="#212325" opacity="1.000000" stroke="none" 
	d="
M428.352051,369.220673 
	C429.017639,371.291931 427.547974,372.604401 426.494507,374.037720 
	C388.174957,426.173309 337.472961,457.592987 272.441803,461.949158 
	C195.377350,467.111359 134.136658,436.464844 87.861374,375.114349 
	C86.692101,373.564178 85.156143,372.122833 85.108734,369.610291 
	C85.615974,365.636780 88.541771,366.602478 90.614525,366.572113 
	C101.273521,366.415924 111.935234,366.504974 122.595993,366.501617 
	C138.920319,366.496490 155.244659,366.516998 171.568909,366.478912 
	C173.514648,366.474365 175.553101,366.881653 177.817642,365.518555 
	C175.632004,364.211426 173.498260,364.525574 171.476730,364.518341 
	C158.484055,364.471863 145.490753,364.569824 132.498535,364.464569 
	C125.558800,364.408356 124.408852,362.328186 127.693672,356.280640 
	C141.841873,330.232819 155.309830,303.824554 169.300690,277.694000 
	C177.789963,261.838684 185.821457,245.744034 194.447937,229.962631 
	C195.090271,228.787582 195.438583,227.496292 196.266510,226.002838 
	C200.333954,218.704590 203.885254,211.556351 207.816803,204.610779 
	C211.279633,198.493240 213.215408,198.410278 217.006424,204.439514 
	C217.979401,205.986938 218.833694,207.610382 219.889267,209.106552 
	C222.505005,212.814102 224.291977,213.231400 227.549438,210.172607 
	C234.699341,203.458847 242.322723,197.278931 249.424606,190.517471 
	C250.749176,189.256424 252.003113,187.919327 253.415619,186.753326 
	C256.911743,183.867355 258.604431,184.125473 260.855194,188.094757 
	C264.954803,195.324524 268.900757,202.640549 272.852539,209.951920 
	C276.328735,216.383408 278.008667,216.720154 283.132019,211.733917 
	C286.349548,208.602509 289.412903,205.309799 292.741058,202.297119 
	C293.988281,201.168106 295.077271,199.184341 297.673370,200.620300 
	C300.475342,202.681519 301.369415,205.651993 302.737488,208.252441 
	C328.849762,257.887604 354.895874,307.557556 380.946716,357.225067 
	C383.504944,362.102386 383.478088,362.171600 378.043396,362.206818 
	C363.388397,362.301849 348.729858,362.541382 334.079712,362.299713 
	C329.182312,362.218964 326.746277,364.163147 325.344727,369.222626 
	C359.763611,369.222626 393.828796,369.222626 428.352051,369.220673 
z"/>
<path fill="#222426" opacity="1.000000" stroke="none" 
	d="
M343.841675,236.590805 
	C345.957184,234.388809 347.683624,232.172958 349.572723,229.748367 
	C352.473694,232.611328 354.064392,236.111526 355.979614,239.335709 
	C379.510834,278.949341 402.962311,318.610321 426.480164,358.231934 
	C427.960632,360.726135 428.825317,362.263092 424.627411,362.214050 
	C414.810547,362.099274 404.988831,362.184784 395.172516,362.370422 
	C392.452515,362.421844 391.038361,361.387085 389.802521,359.017609 
	C371.808685,324.516785 353.749146,290.050140 335.600922,255.630341 
	C334.276611,253.118683 333.995667,251.067215 335.971222,248.565704 
	C336.462463,243.053787 338.416443,238.853806 343.841675,236.590805 
z"/>
<path fill="#96BC52" opacity="1.000000" stroke="none" 
	d="
M297.899292,200.447144 
	C290.934113,207.533218 283.873535,214.308990 276.334839,221.543594 
	C270.802582,211.406464 265.566467,201.806427 260.324829,192.209412 
	C257.377747,186.813599 257.372131,186.814240 252.795074,190.904541 
	C243.621506,199.102493 234.362610,207.208176 225.328873,215.557465 
	C222.525772,218.148193 221.319092,217.760574 219.742035,214.463409 
	C217.744965,210.288101 215.207520,206.371262 212.393936,201.452820 
	C207.813065,209.911804 203.598892,217.693649 199.148376,225.724701 
	C196.454880,227.899414 194.348648,228.056900 192.789154,224.331940 
	C200.795898,208.435135 208.917145,192.981339 217.082596,177.550919 
	C225.413254,161.808304 233.787292,146.088654 242.359512,130.111908 
	C246.535614,127.522682 248.677048,128.139496 250.220322,132.596741 
	C251.499344,136.290848 252.967896,139.897369 254.435669,143.509216 
	C254.921341,144.704391 255.320114,146.101669 257.365784,146.325699 
	C260.100922,147.574631 259.665466,149.894714 259.412140,151.665573 
	C257.275085,166.605103 262.915192,179.256973 270.740021,191.311371 
	C272.640381,194.238937 273.942932,197.494461 275.739929,200.471619 
	C278.011444,204.234879 279.918213,204.485886 283.286407,201.558289 
	C285.036774,200.036880 286.513092,198.207962 288.321899,196.758118 
	C289.500824,195.813126 290.554749,193.977875 292.780975,195.763550 
	C295.168793,196.762405 297.056274,197.791672 297.899292,200.447144 
z"/>
<path fill="#242627" opacity="1.000000" stroke="none" 
	d="
M293.177673,195.703186 
	C288.817169,200.004929 284.508789,203.914413 280.408813,208.031403 
	C278.582062,209.865784 277.685883,209.769791 276.468140,207.478622 
	C270.464355,196.182541 264.361023,184.939117 258.250336,173.700241 
	C257.064545,171.519409 257.265778,169.187927 257.228912,166.881897 
	C257.133118,160.896698 257.109528,154.910339 256.983643,148.460663 
	C255.820374,147.005814 254.805099,145.718002 254.740509,144.382538 
	C254.390335,137.142105 254.295639,129.888168 254.736481,122.645470 
	C254.827545,121.149307 255.345337,119.581337 257.127777,119.307579 
	C259.051270,119.012146 260.198059,120.375221 261.066467,121.815750 
	C263.899170,126.514694 266.069977,131.554581 268.755615,136.794662 
	C271.806915,141.211700 272.947632,146.087158 275.621735,150.625916 
	C279.534912,156.067688 281.521423,162.102829 284.790649,167.870972 
	C287.012421,171.367737 288.141479,175.019577 290.117340,178.243164 
	C290.808685,179.371140 290.757416,180.404724 289.768341,181.751205 
	C291.014069,184.988998 292.289795,187.957230 293.853302,190.765228 
	C294.864441,192.581268 295.016693,194.025284 293.177673,195.703186 
z"/>
<path fill="#8EB44F" opacity="1.000000" stroke="none" 
	d="
M290.131897,182.068161 
	C287.412476,177.995316 285.208649,173.901917 282.899353,169.467041 
	C282.912933,166.314240 283.372650,163.854401 287.623779,164.878693 
	C290.918610,170.219833 293.782593,175.543411 296.741638,181.226639 
	C294.773651,181.740067 292.710541,181.893845 290.131897,182.068161 
z"/>
<path fill="#8EB44F" opacity="1.000000" stroke="none" 
	d="
M344.139099,236.220734 
	C341.714874,240.353622 339.199066,244.102615 336.417297,248.065216 
	C335.049500,246.595123 333.595612,245.307114 331.516052,244.253174 
	C334.260254,239.446838 337.286163,234.793030 340.610504,229.963638 
	C341.955109,231.804321 343.001282,233.820587 344.139099,236.220734 
z"/>
<path fill="#95B953" opacity="1.000000" stroke="none" 
	d="
M192.403900,224.095490 
	C194.502274,224.531891 196.349319,225.185074 198.554199,225.906082 
	C177.019989,268.936340 154.232666,311.428558 131.646408,354.026337 
	C127.334656,362.158356 127.314919,362.250977 136.258972,362.322754 
	C150.240814,362.434967 164.228882,362.613068 178.203781,362.297150 
	C183.201294,362.184113 185.449966,364.222992 186.712952,369.311554 
	C152.902588,369.311554 119.497108,369.311554 85.631683,369.288330 
	C84.982246,369.173431 84.792763,369.081696 84.305176,368.885773 
	C82.618073,367.394867 83.235443,365.367310 82.424652,363.386353 
	C84.114914,359.908600 87.156563,359.664490 90.073532,359.568634 
	C96.060051,359.371918 102.080284,359.161133 108.039406,359.591766 
	C114.945457,360.090881 119.277962,357.330353 122.380623,351.254578 
	C127.675354,340.886108 133.386902,330.727112 138.798248,320.417786 
	C149.855591,299.352051 160.597687,278.120575 171.979477,257.225250 
	C173.839584,253.810349 174.971115,250.210220 175.521729,245.999908 
	C176.880844,243.951004 178.118942,242.284927 180.699829,241.760742 
	C183.261826,242.516113 183.475433,240.594818 184.103867,239.438950 
	C186.831909,234.421280 189.477173,229.358597 192.403900,224.095490 
z"/>
<path fill="#93B952" opacity="1.000000" stroke="none" 
	d="
M84.255318,362.557068 
	C84.036148,364.547699 84.021416,366.244293 84.006882,368.361206 
	C83.841026,368.818970 83.674965,368.856384 83.256218,368.929993 
	C81.908539,365.412567 79.028496,362.977936 77.203377,359.525635 
	C77.114738,359.044861 77.101990,358.872925 77.035583,358.447968 
	C78.459061,357.776093 78.867722,356.391968 79.529114,355.282104 
	C106.046516,310.785492 132.534836,266.271545 159.063980,221.781967 
	C163.139969,214.946503 161.944397,215.052856 166.825058,221.716614 
	C167.888687,223.168839 168.861847,224.687332 169.994263,226.494019 
	C171.311890,230.884567 167.829025,229.949158 165.659760,230.973572 
	C159.041183,238.805191 154.998901,247.815002 149.911850,256.165375 
	C130.641296,287.798065 111.835915,319.710602 93.036530,351.625153 
	C90.679825,355.625946 87.954948,359.229401 84.255318,362.557068 
z"/>
<path fill="#99BF53" opacity="1.000000" stroke="none" 
	d="
M268.079773,139.737915 
	C264.437622,133.861526 261.253052,127.976067 258.068512,122.090599 
	C257.732452,122.126053 257.396362,122.161507 257.060303,122.196968 
	C257.060303,130.488113 257.060303,138.779251 256.985229,147.533630 
	C250.915421,146.214783 250.530838,140.475983 248.612091,135.931976 
	C247.477844,133.245850 246.665588,130.612244 242.957855,129.948364 
	C246.919968,121.193207 251.263260,112.521538 256.173615,102.717659 
	C261.798889,113.703026 266.816620,123.501976 271.897766,133.653671 
	C271.212128,136.148560 272.365387,139.428864 268.079773,139.737915 
z"/>
<path fill="#8EB44F" opacity="1.000000" stroke="none" 
	d="
M163.838120,229.816315 
	C165.548569,227.985474 167.737366,228.071228 169.802109,226.974197 
	C173.708191,231.580704 177.304489,236.348694 180.995209,241.437439 
	C180.381302,243.770142 179.080154,245.220734 176.716064,246.147491 
	C175.505844,247.463379 174.310547,247.703140 173.445251,246.627747 
	C169.815704,242.116913 165.990829,237.730896 163.295914,232.549438 
	C162.896759,231.782013 163.298920,230.932983 163.838120,229.816315 
z"/>
<path fill="#99BD54" opacity="1.000000" stroke="none" 
	d="
M287.925232,164.565613 
	C286.472595,166.157730 284.890503,167.419235 283.051147,168.903137 
	C279.914795,163.645218 277.035736,158.164917 274.093750,152.337219 
	C274.625397,149.185059 274.895660,145.923447 279.538391,148.669571 
	C282.524078,154.085541 285.159943,159.160263 287.925232,164.565613 
z"/>
<path fill="#8EB44F" opacity="1.000000" stroke="none" 
	d="
M279.826965,148.661743 
	C277.801056,149.230423 276.153870,150.354980 274.297791,151.794403 
	C271.956665,148.123093 269.882477,144.256332 267.715240,140.068283 
	C268.884949,137.971161 270.147705,136.195343 271.685822,134.212982 
	C274.562683,138.775177 277.164215,143.543930 279.826965,148.661743 
z"/>
<path fill="#94BA54" opacity="1.000000" stroke="none" 
	d="
M229.384552,323.340027 
	C223.287552,327.742645 217.552658,332.035645 211.640610,336.069000 
	C208.984451,337.881104 209.228394,338.865631 211.738174,340.560211 
	C218.635056,345.216888 225.300873,350.217682 232.229462,354.824585 
	C234.938751,356.626038 235.642365,358.133301 233.164078,360.532227 
	C232.452545,361.220947 231.819626,362.030273 231.307953,362.879089 
	C229.347656,366.131012 227.500336,366.356171 224.290909,363.869629 
	C214.422318,356.223755 204.310883,348.881653 194.122284,341.663666 
	C190.561707,339.141205 190.279633,337.622528 194.025940,334.956726 
	C204.605560,327.428436 215.032104,319.678375 225.355591,311.801605 
	C227.841095,309.905212 229.329025,309.914276 230.809311,312.584595 
	C230.889221,312.728760 231.008224,312.851196 231.108780,312.983948 
	C236.639084,320.282410 236.205185,318.196228 229.384552,323.340027 
z"/>
<path fill="#95BB54" opacity="1.000000" stroke="none" 
	d="
M285.976990,311.034973 
	C287.748535,309.484467 288.627350,310.963074 289.599274,311.673096 
	C299.947113,319.232544 310.290619,326.798340 320.586914,334.427734 
	C325.256500,337.887817 325.219330,338.169556 320.392822,341.748047 
	C310.499054,349.083435 300.497894,356.278107 290.733002,363.780701 
	C287.848206,365.997131 286.302368,366.122803 284.088989,362.955902 
	C280.074371,357.211945 279.886139,357.368195 285.736542,353.192749 
	C291.697052,348.938721 297.556824,344.538269 303.611206,340.423431 
	C306.272400,338.614746 306.049591,337.558350 303.585449,335.841644 
	C297.167969,331.370789 290.996124,326.539764 284.492371,322.203217 
	C280.902130,319.809296 279.554382,317.735168 283.286957,314.436462 
	C284.266907,313.570404 284.940765,312.358063 285.976990,311.034973 
z"/>
<path fill="#95BA57" opacity="1.000000" stroke="none" 
	d="
M265.436523,299.224121 
	C266.797211,296.284180 273.049652,294.463806 275.133667,296.154358 
	C276.739655,297.457184 275.303802,298.953217 274.947693,300.196320 
	C270.553253,315.537537 266.034393,330.843079 261.566101,346.163177 
	C258.354614,357.174194 255.194183,368.200104 251.958847,379.204102 
	C251.120605,382.055084 244.206039,384.179169 242.080582,382.197388 
	C240.529449,380.751007 241.922592,379.016815 242.329651,377.597168 
	C246.636826,362.575348 251.076630,347.591492 255.501190,332.603424 
	C258.748932,321.601746 262.028351,310.609344 265.436523,299.224121 
z"/>
<path fill="#222526" opacity="1.000000" stroke="none" 
	d="
M163.638153,229.423340 
	C167.982666,234.924454 171.943085,240.389633 176.132004,246.074158 
	C178.550446,248.732147 178.348358,251.061691 176.808105,253.955368 
	C158.263687,288.795013 139.809540,323.682953 121.458328,358.624756 
	C119.916580,361.560333 118.103210,362.631561 114.843407,362.591705 
	C104.848793,362.469421 94.850426,362.653595 84.452194,362.784851 
	C83.851654,358.958527 86.908783,356.654541 88.630768,353.749542 
	C112.460152,313.549561 136.374100,273.399719 160.293503,233.253174 
	C161.120285,231.865509 161.550018,230.122864 163.638153,229.423340 
z"/>
</svg>